# Blender v2.80 (sub 75) OBJ File: 'Bottle.blend'
# www.blender.org
mtllib Bottle.mtl
o Plane
v -0.598181 1.628779 0.941224
v -0.598180 -0.018565 0.666936
v -0.598180 -0.018565 -0.000807
v -0.598181 3.548797 0.980408
v -0.598181 4.867340 0.451424
v -0.598181 4.462765 0.412240
v -0.598181 0.628779 1.058776
v -0.598181 5.141628 -0.000807
v 0.596933 1.628779 0.941224
v 0.596933 0.628779 1.058776
v 0.596933 -0.018565 0.666936
v 0.596933 -0.018565 -0.000807
v 0.596933 3.548797 0.980408
v 0.596933 4.867340 0.451424
v 0.596933 4.462765 0.412240
v 0.596933 5.141628 -0.000807
v -0.598181 1.628779 -0.941224
v -0.598180 -0.018565 -0.666936
v -0.598180 -0.018565 0.000807
v -0.598181 3.548797 -0.980408
v -0.598181 4.867340 -0.451424
v -0.598181 4.462765 -0.412240
v -0.598181 0.628779 -1.058776
v -0.598181 5.141628 0.000807
v 0.596933 1.628779 -0.941224
v 0.596933 0.628779 -1.058776
v 0.596933 -0.018565 -0.666936
v 0.596933 -0.018565 0.000807
v 0.596933 3.548797 -0.980408
v 0.596933 4.867340 -0.451424
v 0.596933 4.462765 -0.412240
v 0.596933 5.141628 0.000807
v -0.598181 5.141628 -0.556368
v -0.598181 4.867340 -0.556368
v 0.596933 5.141628 -0.556368
v 0.596933 4.867340 -0.556368
v -0.598181 5.141628 0.545873
v -0.598181 4.867340 0.545873
v 0.596933 5.141628 0.545873
v 0.596933 4.867340 0.545873
vt 0.000000 0.000000
vt 0.000000 0.000000
vt 0.000000 0.000000
vt 0.000000 0.000000
vt 1.000000 0.000000
vt 1.000000 1.000000
vt 1.000000 1.000000
vt 1.000000 0.000000
vt 0.000000 1.000000
vt 0.000000 0.000000
vt 0.000000 0.000000
vt 0.000000 0.000000
vt 0.000000 0.000000
vt 0.500000 0.000000
vt 1.000000 0.000000
vt 1.000000 1.000000
vt 0.500000 0.000000
vt 0.000000 0.000000
vt 0.000000 0.000000
vt 0.000000 0.000000
vt 0.000000 0.000000
vt 0.000000 0.000000
vt 0.000000 0.000000
vt 0.000000 1.000000
vt 0.000000 0.000000
vt 0.000000 0.000000
vt 0.000000 0.000000
vt 0.000000 0.000000
vt 0.000000 0.000000
vt 0.500000 0.000000
vt 1.000000 0.000000
vt 0.000000 0.000000
vt 0.500000 0.000000
vt 0.000000 0.000000
vt 1.000000 1.000000
vt 0.000000 0.000000
vt 0.000000 0.000000
vt 0.000000 0.000000
vt 0.000000 1.000000
vt 0.000000 1.000000
vn 0.0000 0.5280 -0.8493
vn 0.0000 -1.0000 0.0000
vn -1.0000 -0.0000 0.0000
vn 0.0000 -0.0204 0.9998
vn 0.0000 -0.0964 -0.9953
vn 0.0000 0.5280 0.8493
vn 0.0000 -0.0204 -0.9998
vn 0.0000 0.1167 -0.9932
vn 0.0000 -0.5178 -0.8555
vn 0.0000 0.1167 0.9932
vn 0.0000 -0.0964 0.9953
vn 0.0000 -0.5178 0.8555
vn 0.0000 0.0000 -1.0000
vn 0.0000 1.0000 0.0000
vn 0.0000 0.0000 1.0000
vn 1.0000 0.0000 0.0000
usemtl None
s off
f 22/1/1 31/2/1 29/3/1 20/4/1
f 2/5/2 3/6/2 12/7/2 11/8/2
f 24/9/3 33/10/3 34/11/3 21/12/3 22/1/3 20/4/3 17/13/3 23/14/3 18/15/3 19/16/3 3/6/3 2/5/3 7/17/3 1/18/3 4/19/3 6/20/3 5/21/3 38/22/3 37/23/3 8/24/3
f 4/19/4 1/18/4 9/25/4 13/26/4
f 21/12/5 30/27/5 31/2/5 22/1/5
f 6/20/6 4/19/6 13/26/6 15/28/6
f 29/3/7 25/29/7 17/13/7 20/4/7
f 26/30/8 23/14/8 17/13/8 25/29/8
f 23/14/9 26/30/9 27/31/9 18/15/9
f 30/27/2 21/12/2 34/11/2 36/32/2
f 7/17/10 10/33/10 9/25/10 1/18/10
f 6/20/11 15/28/11 14/34/11 5/21/11
f 2/5/12 11/8/12 10/33/12 7/17/12
f 18/15/2 27/31/2 28/35/2 19/16/2
f 36/32/13 34/11/13 33/10/13 35/36/13
f 39/37/14 35/36/14 33/10/14 37/23/14
f 37/23/15 38/22/15 40/38/15 39/37/15
f 30/27/16 36/32/16 35/36/16 32/39/16 16/40/16 39/37/16 40/38/16 14/34/16 15/28/16 13/26/16 9/25/16 10/33/16 11/8/16 12/7/16 28/35/16 27/31/16 26/30/16 25/29/16 29/3/16 31/2/16
f 5/21/2 14/34/2 40/38/2 38/22/2
